PathFileType	4	(X/Y/Z)	/Users/niels/Desktop/University/Third Semester/Perception and Action/Exam/Gymnastics Motion Tracking/Code for Gym Tracking/Analyzed Data/Webcam_Backflip/id19_3_trajectory_Sports2D/id19_3_trajectory_Sports2D_px_person00.trc
DataRate	CameraRate	NumFrames	NumMarkers	Units	OrigDataRate	OrigDataStartFrame	OrigNumFrames
29.714285714285715	29.714285714285715	12	22	m	29.714285714285715	91	105
Frame#	Time	Hip			RHip			RKnee			RAnkle			RBigToe			RSmallToe			RHeel			LHip			LKnee			LAnkle			LBigToe			LSmallToe			LHeel			Neck			Head			Nose			RShoulder			RElbow			RWrist			LShoulder			LElbow			LWrist		
		X1	Y1	Z1	X2	Y2	Z2	X3	Y3	Z3	X4	Y4	Z4	X5	Y5	Z5	X6	Y6	Z6	X7	Y7	Z7	X8	Y8	Z8	X9	Y9	Z9	X10	Y10	Z10	X11	Y11	Z11	X12	Y12	Z12	X13	Y13	Z13	X14	Y14	Z14	X15	Y15	Z15	X16	Y16	Z16	X17	Y17	Z17	X18	Y18	Z18	X19	Y19	Z19	X20	Y20	Z20	X21	Y21	Z21	X22	Y22	Z22
91	3.0625	0.3907345079452118	-0.6820395526673606	0.0	0.3881902506212708	-0.6798674826925947	0.0	0.46155378721050033	-0.7629887917471576	0.0	0.35104317994670287	-0.819969968223114	0.0	0.3732061866596127	-0.8669013909698077	0.0	0.3624603974321944	-0.8629356550088123	0.0	0.3328964883458367	-0.818677949929159	0.0	0.3939060435279286	-0.6792195277926085	0.0	0.42702527072218477	-0.7820103000687297	0.0	0.39757120530285894	-0.8895457448468147	0.0	0.4413269580065019	-0.9165406672319044	0.0	0.43502675434581706	-0.9107899534538553	0.0	0.3832968770582475	-0.9035090415656793	0.0	0.4682312076851735	-0.5462977680308355	0.0	0.5181585696125315	-0.4964420420083745	0.0	0.5055768752692082	-0.5360334762764647	0.0	0.4650781798949414	-0.5570470631351341	0.0	0.3939976712235863	-0.5954009821527874	0.0	0.34561743801512124	-0.6507896134382574	0.0	0.45855712099220897	-0.5568405691168148	0.0	0.4536342080333025	-0.6259320856358094	0.0	0.5052560725413705	-0.615209384412341	0.0
92	3.096153846153846	0.37248884405145277	-0.6799301664126178	0.0	0.37179317331991535	-0.6768656998166424	0.0	0.4412940634829011	-0.7652267354051501	0.0	0.32544040878921915	-0.8217305819727914	0.0	0.34694221295565625	-0.8701113194507164	0.0	0.3373210251032451	-0.8654388862453566	0.0	0.3069991334709057	-0.819857439740487	0.0	0.37265348067718934	-0.6761047818065539	0.0	0.4111880735437352	-0.7778960974864574	0.0	0.39667408728411524	-0.8896168077560168	0.0	0.4439030004115408	-0.9121011994380019	0.0	0.4372340368722547	-0.9066375660416437	0.0	0.38461566298749694	-0.9038484702499927	0.0	0.44172345531931484	-0.5389395814852067	0.0	0.4906313823943367	-0.4880907492248904	0.0	0.4790291665152298	-0.5278206699636167	0.0	0.44408913251453963	-0.5518972346697133	0.0	0.3774331213905342	-0.5956386205230568	0.0	0.33010468723794034	-0.6519159508143472	0.0	0.42555223888781096	-0.5478460534546318	0.0	0.4049577654677481	-0.6177222713754821	0.0	0.450241428136224	-0.6229390840181004	0.0
93	3.129807692307692	0.352749855778833	-0.6758993009504549	0.0	0.3554922685222955	-0.6718998425463398	0.0	0.4266194983702657	-0.7605328566961248	0.0	0.31285678148387047	-0.8227837066515269	0.0	0.33635476996372443	-0.870259471450356	0.0	0.32793128058784504	-0.8658766146452321	0.0	0.294489647650175	-0.8219683905552887	0.0	0.348338293603797	-0.671364430935174	0.0	0.3988848010086966	-0.7685092980888857	0.0	0.398701428182055	-0.8808346099887586	0.0	0.4483548015852374	-0.8982304777845058	0.0	0.44151035733944893	-0.893252864049587	0.0	0.38921331263896264	-0.8950538910430309	0.0	0.4159647905719302	-0.532513386955537	0.0	0.46411213545297264	-0.4811913441040833	0.0	0.4540463944894071	-0.520923050329645	0.0	0.42476692602555505	-0.5471809247293324	0.0	0.3656100120063434	-0.5958564633351536	0.0	0.3197704774826641	-0.6538963246509161	0.0	0.39259583326646613	-0.5399586223884865	0.0	0.3580028580642948	-0.6088974933263817	0.0	0.3933835920629251	-0.6307217740529678	0.0
94	3.1634615384615383	0.3317002346261606	-0.670318540141489	0.0	0.33894278647505127	-0.6653992089812109	0.0	0.4162561814829868	-0.750519661231401	0.0	0.3098467305256788	-0.8222340813103435	0.0	0.33686987792632017	-0.867251334057256	0.0	0.3295297450001316	-0.8639203822470604	0.0	0.2916794645805719	-0.8237456223984503	0.0	0.32209742952031356	-0.6657334998660579	0.0	0.3896484438559483	-0.7551780979998758	0.0	0.40250213977847416	-0.863832476634063	0.0	0.45343558161847486	-0.8759704819284806	0.0	0.44666001640152564	-0.8716497640312699	0.0	0.3958413134276875	-0.878020038929296	0.0	0.3906991996494862	-0.5270475764980247	0.0	0.43771601379383157	-0.4752191277251529	0.0	0.4299588723094937	-0.5149322086896969	0.0	0.40638503104386814	-0.5422711926058326	0.0	0.35674531342577936	-0.594392215807589	0.0	0.31372314131242646	-0.6553194623529617	0.0	0.3605991952227191	-0.5337391056053141	0.0	0.3144474198808273	-0.6012225013465664	0.0	0.3376044241560597	-0.637441376160388	0.0
95	3.1971153846153846	0.31013005300145796	-0.6642620838727842	0.0	0.3220226698419946	-0.658499714474698	0.0	0.4080804279684997	-0.7379422572694989	0.0	0.31236103545691496	-0.8200606169768876	0.0	0.3432757389168036	-0.8619912577213474	0.0	0.336808018991606	-0.8601398763002917	0.0	0.2944910779247896	-0.8246658936707353	0.0	0.29573690649041273	-0.6604975322860257	0.0	0.38282041647972737	-0.7399111329996712	0.0	0.4070384344294004	-0.8403447020938315	0.0	0.45819825633897543	-0.8474956354444116	0.0	0.45171607716510503	-0.8438894526708451	0.0	0.4033555051666488	-0.8545483341916634	0.0	0.36535150499852803	-0.5229074705777158	0.0	0.4103195378746499	-0.470054940338543	0.0	0.40569303472585655	-0.5098388114178236	0.0	0.38786257003270797	-0.5370753509888105	0.0	0.34885021278231054	-0.5908530982231142	0.0	0.3113098823419583	-0.6552759734486562	0.0	0.3299384314177187	-0.5298733729482595	0.0	0.27575263843404507	-0.5964779683888631	0.0	0.28695025030092414	-0.643395209690552	0.0
96	3.230769230769231	0.28911312767801683	-0.6591728334587185	0.0	0.3049674478017981	-0.6525688723232389	0.0	0.4003246117871042	-0.7254513233351348	0.0	0.3172156740701115	-0.8169084390001108	0.0	0.3514823397047646	-0.8558894702966516	0.0	0.3457216727904135	-0.8556475020501408	0.0	0.2998346470616995	-0.8248618010609172	0.0	0.2710175605361596	-0.6570569630266421	0.0	0.37726214843574524	-0.7249863277392352	0.0	0.4110296938724696	-0.8132725869593574	0.0	0.4617056344713487	-0.8159510935471114	0.0	0.4557001196452164	-0.8129945373254533	0.0	0.4103141332057915	-0.8273438598770513	0.0	0.339222107552978	-0.5206396660406049	0.0	0.3809916277771938	-0.46598910396611215	0.0	0.380153559271197	-0.5059897559330253	0.0	0.3678957402377144	-0.5321210285041965	0.0	0.3400678564532113	-0.5860147190305163	0.0	0.3116113483558324	-0.653635674340396	0.0	0.30032206689020674	-0.5290223434915893	0.0	0.2426908334580065	-0.5956354670916584	0.0	0.24441299125142943	-0.6494715817912714	0.0
97	3.2644230769230766	0.2694523828167214	-0.6563042719246875	0.0	0.28820546564539784	-0.6486078448168714	0.0	0.3919642568269943	-0.7150520208626046	0.0	0.3224894964228101	-0.8137799488109386	0.0	0.3592588218153425	-0.8503653793241841	0.0	0.3541577938493345	-0.8516784828787207	0.0	0.3058955799248347	-0.8248980073043481	0.0	0.24915102851082804	-0.6564415908682848	0.0	0.37158536498890504	-0.7123715273497808	0.0	0.4130302984959017	-0.7861525062278304	0.0	0.462885700776481	-0.7848885573989067	0.0	0.45752859065890245	-0.7824511600538151	0.0	0.41501964221175686	-0.7996748388464486	0.0	0.31180858842132614	-0.5207591417794095	0.0	0.34928448013817875	-0.46372956679245153	0.0	0.352581614676182	-0.5040177364282263	0.0	0.3452363847123736	-0.5282841558462671	0.0	0.3288807149590603	-0.581315665904889	0.0	0.3133685212034453	-0.6509259919622993	0.0	0.27124529500513245	-0.5316568551104782	0.0	0.21537143500377254	-0.5986763637718907	0.0	0.21119331727195126	-0.6560700014340781	0.0
98	3.298076923076923	0.2513680478751547	-0.6562047407676215	0.0	0.2720254890485585	-0.6469181838616314	0.0	0.3826022890240797	-0.7079903777076079	0.0	0.3273484275056204	-0.8116153869417778	0.0	0.3660199867696275	-0.8464819669526454	0.0	0.36164575155724354	-0.8491474374953772	0.0	0.3119050703735861	-0.825395712792828	0.0	0.23055425922965664	-0.6589579744706279	0.0	0.36459311505591263	-0.7033436650035327	0.0	0.4117838570639908	-0.7622172069768	0.0	0.46068387000938227	-0.7575558588267478	0.0	0.4560994672348438	-0.7554904466277149	0.0	0.41595475841262525	-0.7747543036291858	0.0	0.2830014475649192	-0.5236352918457263	0.0	0.31507457377976217	-0.4642400685223697	0.0	0.3226461806526928	-0.5046594788313419	0.0	0.3192445883870775	-0.5264206114313786	0.0	0.3144052061477896	-0.5782849891626778	0.0	0.31514630802332605	-0.6478592065294901	0.0	0.24241499851635337	-0.5380346815125211	0.0	0.19348306479774718	-0.6051641416040354	0.0	0.187410397910007	-0.6632520972549014	0.0
99	3.331730769230769	0.23469024404259556	-0.6588132721774992	0.0	0.2565010571051238	-0.6474346186903446	0.0	0.3722146248828323	-0.7047949695720229	0.0	0.3318100050452198	-0.8109408095108409	0.0	0.3721296943685924	-0.8447377434419987	0.0	0.3686273926587784	-0.8483478694911951	0.0	0.31794391520481086	-0.8266720044111798	0.0	0.21494696565399984	-0.6643951429705885	0.0	0.35554011702293	-0.6984369097520872	0.0	0.40648889418898826	-0.74360108348144	0.0	0.45438338997539185	-0.7362775600958715	0.0	0.45050337215067243	-0.734453400558795	0.0	0.41221106956307496	-0.7550015856314937	0.0	0.2530059695732177	-0.5295732788294436	0.0	0.27824340026362177	-0.4684686004544675	0.0	0.29031724194731745	-0.5085587573252609	0.0	0.290241020997279	-0.5273643446557578	0.0	0.29673418589432093	-0.578000177665954	0.0	0.3155212115604492	-0.6448854093472328	0.0	0.2138291349536646	-0.5483495492161105	0.0	0.17627622932145093	-0.6148537213003467	0.0	0.17225883334634398	-0.6714963175852098	0.0
100	3.3653846153846154	0.21938970916582762	-0.6640470454077884	0.0	0.24178887320985265	-0.6503330736027119	0.0	0.36086096010338437	-0.7054431265700439	0.0	0.33645970932049074	-0.8118406764196272	0.0	0.3782746201189434	-0.8449955287854324	0.0	0.3758424267633137	-0.8489592168600211	0.0	0.3247221463220334	-0.8286499075887198	0.0	0.20170327232133944	-0.6725756416072942	0.0	0.34406423577890627	-0.6975989694473214	0.0	0.3970095638680965	-0.7310986881335202	0.0	0.4438155772236354	-0.7219912920817025	0.0	0.4402332728546941	-0.7203407649694173	0.0	0.4037911715587545	-0.7415711345442145	0.0	0.22221218888738706	-0.5388952522195654	0.0	0.23884571295239404	-0.47727298294205367	0.0	0.2557980300908228	-0.5162816934832134	0.0	0.2592559981041473	-0.5321952077455807	0.0	0.27697900264176456	-0.5808261655224578	0.0	0.31330718880623587	-0.6420870889205944	0.0	0.1856899175356932	-0.5627772758265792	0.0	0.16237968191615684	-0.6279988430610346	0.0	0.1635611822957217	-0.6822425665286458	0.0
101	3.3990384615384612	0.20590841446121208	-0.672005307628045	0.0	0.22828315485605347	-0.6560394678478486	0.0	0.3484757309329696	-0.7095674939426435	0.0	0.3419969430472272	-0.81418487969058	0.0	0.3850231986594226	-0.8466181127389241	0.0	0.38391531794925066	-0.8503417718879759	0.0	0.33307339094569866	-0.8310805376317126	0.0	0.19018662871382544	-0.6834497151532604	0.0	0.3299285907690531	-0.7003342134040241	0.0	0.38412673175571	-0.7244283758894913	0.0	0.4293730860171568	-0.7140827930775632	0.0	0.42532083333427767	-0.7126458041114863	0.0	0.3918251343400697	-0.734494332450559	0.0	0.19115160472816842	-0.5519309911407025	0.0	0.19740521175088077	-0.49126433294581656	0.0	0.21931472662541415	-0.5282487277477589	0.0	0.2275510570394107	-0.5421040686074464	0.0	0.2568771177822272	-0.586629095220053	0.0	0.30780707299658816	-0.639419783045332	0.0	0.15833975553980553	-0.5812667106403783	0.0	0.1498590287881672	-0.6453159859889795	0.0	0.15787015555927414	-0.6978445041370688	0.0
102	3.4326923076923075	0.19475710139108823	-0.6825764452892862	0.0	0.21631485825193653	-0.6646352247184678	0.0	0.3349056568662362	-0.7165621284710003	0.0	0.34878783702196897	-0.8178079365570201	0.0	0.39254628898189675	-0.8488499970509229	0.0	0.39306559167295735	-0.8519370546940959	0.0	0.3433805874327531	-0.8338010194243556	0.0	0.17978527982343312	-0.6966742597021537	0.0	0.3129113040294198	-0.7057716418377619	0.0	0.3694009198841026	-0.7226297021095623	0.0	0.4118364981084212	-0.7107410887587273	0.0	0.40634875864623315	-0.7096492898296771	0.0	0.3783534638164389	-0.7330857488640192	0.0	0.16039479412266855	-0.569006995826732	0.0	0.154683955141652	-0.5103981262963145	0.0	0.18078485328282604	-0.5444841991764211	0.0	0.19629019118649363	-0.5577762444188585	0.0	0.23811705848075249	-0.5951242970427957	0.0	0.2990075143845794	-0.6369710845685003	0.0	0.13212129047572377	-0.6033530274961411	0.0	0.1368721241314572	-0.6673582725237407	0.0	0.1516028653680015	-0.7200249511276717	0.0
